<svg width="500" height="500" viewBox="0 0 500 500" fill="none" xmlns="http://www.w3.org/2000/svg">
<path d="M250.004 500C388.075 500 500.004 388.071 500.004 250C500.004 111.929 388.075 0 250.004 0C111.933 0 0.00390625 111.929 0.00390625 250C0.00390625 388.071 111.933 500 250.004 500Z" fill="white"/>
<mask id="mask0_1431_2542" style="mask-type:luminance" maskUnits="userSpaceOnUse" x="321" y="140" width="72" height="222">
<path d="M329.59 140.829H385.303C389.545 140.829 392.999 144.282 392.999 148.524V354.19C392.999 358.433 389.545 361.886 385.303 361.886H329.59C325.348 361.886 321.895 358.433 321.895 354.19V148.524C321.895 144.282 325.348 140.829 329.59 140.829Z" fill="white"/>
</mask>
<g mask="url(#mask0_1431_2542)">
<path d="M384.509 117.738L250.156 167.277L330.421 384.96L464.773 335.421L384.509 117.738Z" fill="url(#paint0_linear_1431_2542)"/>
</g>
<mask id="mask1_1431_2542" style="mask-type:luminance" maskUnits="userSpaceOnUse" x="73" y="139" width="158" height="225">
<path d="M166.171 143.541L73.8209 327.304C71.9134 331.102 73.4427 335.723 77.2413 337.631L127.017 362.642C130.816 364.55 135.437 363.02 137.344 359.222L229.694 175.459C231.602 171.661 230.072 167.04 226.274 165.132L176.498 140.121C175.379 139.562 174.212 139.299 173.044 139.299C170.232 139.299 167.519 140.845 166.171 143.541Z" fill="white"/>
</mask>
<g mask="url(#mask1_1431_2542)">
<path d="M206.464 81.1452L-10.1484 174.792L97.0518 422.754L313.664 329.108L206.464 81.1452Z" fill="url(#paint1_linear_1431_2542)"/>
</g>
<mask id="mask2_1431_2542" style="mask-type:luminance" maskUnits="userSpaceOnUse" x="204" y="138" width="110" height="227">
<path d="M243.854 144.199L204.339 344.505C203.517 348.665 206.214 352.694 210.374 353.532L264.985 364.55C269.161 365.388 273.24 362.675 274.062 358.498L313.577 158.193C314.399 154.033 311.702 150.004 307.542 149.166L252.931 138.148C252.421 138.049 251.912 138 251.402 138C247.801 138 244.578 140.532 243.854 144.199Z" fill="white"/>
</mask>
<g mask="url(#mask2_1431_2542)">
<path d="M301.165 102.058L129.797 165.144L216.759 401.371L388.127 338.286L301.165 102.058Z" fill="url(#paint2_linear_1431_2542)"/>
</g>
<defs>
<linearGradient id="paint0_linear_1431_2542" x1="251.431" y1="286.955" x2="401.784" y2="231.517" gradientUnits="userSpaceOnUse">
<stop stop-color="#B02DE9"/>
<stop offset="0.02" stop-color="#B02DE9"/>
<stop offset="0.8" stop-color="#6D00CC"/>
<stop offset="1" stop-color="#6D00CC"/>
</linearGradient>
<linearGradient id="paint1_linear_1431_2542" x1="120.599" y1="263.269" x2="282.224" y2="193.395" gradientUnits="userSpaceOnUse">
<stop stop-color="#FF00FF"/>
<stop offset="0.17" stop-color="#E90CF9"/>
<stop offset="0.54" stop-color="#C023ED"/>
<stop offset="0.73" stop-color="#B02DE9"/>
<stop offset="1" stop-color="#B02DE9"/>
</linearGradient>
<linearGradient id="paint2_linear_1431_2542" x1="84.5452" y1="317.601" x2="415.863" y2="195.634" gradientUnits="userSpaceOnUse">
<stop stop-color="#FF00FF"/>
<stop offset="0.02" stop-color="#FF00FF"/>
<stop offset="0.09" stop-color="#E90CF9"/>
<stop offset="0.23" stop-color="#C023ED"/>
<stop offset="0.3" stop-color="#B02DE9"/>
<stop offset="0.42" stop-color="#A42BE3"/>
<stop offset="0.63" stop-color="#8626D5"/>
<stop offset="0.85" stop-color="#6021C3"/>
<stop offset="1" stop-color="#6021C3"/>
</linearGradient>
</defs>
</svg>
